<?xml version="1.0" standalone="no"?>
<!DOCTYPE svg PUBLIC "-//W3C//DTD SVG 20010904//EN"
 "http://www.w3.org/TR/2001/REC-SVG-20010904/DTD/svg10.dtd">
<svg version="1.0" xmlns="http://www.w3.org/2000/svg"
 width="1280.000000pt" height="1185.000000pt" viewBox="0 0 1280.000000 1185.000000"
 preserveAspectRatio="xMidYMid meet">
<metadata>
Created by potrace 1.15, written by Peter Selinger 2001-2017
</metadata>
<g transform="translate(0.000000,1185.000000) scale(0.100000,-0.100000)"
fill="#000000" stroke="none">
<path d="M4397 11843 c-10 -9 -9 -43 1 -43 12 0 32 23 32 37 0 14 -22 18 -33
6z"/>
<path d="M4289 11756 c-79 -60 -213 -235 -247 -322 -66 -168 -132 -628 -96
-664 14 -14 45 0 136 64 241 167 590 286 1073 366 l120 20 -158 -5 c-289 -9
-522 -42 -729 -101 -240 -69 -259 -56 -223 161 21 128 37 177 116 345 88 189
89 198 8 136z"/>
<path d="M5450 11110 c14 -4 65 -15 115 -24 49 -10 119 -30 156 -47 99 -43
139 -37 98 15 -23 29 -47 34 -55 11 -9 -22 -32 -18 -39 6 -12 36 -64 49 -187
48 -73 0 -104 -3 -88 -9z"/>
<path d="M5145 11074 c-187 -34 -552 -133 -755 -206 -143 -51 -405 -203 -469
-272 l-24 -25 27 -11 c15 -5 34 -10 43 -10 23 0 69 -37 92 -74 25 -39 27 -83
6 -133 -28 -66 -20 -106 51 -257 91 -193 119 -278 98 -299 -10 -9 -41 10 -107
65 -113 94 -220 132 -372 132 -145 0 -338 -48 -380 -94 -20 -22 -23 -66 -7
-82 14 -14 120 4 231 38 99 31 167 31 212 1 41 -27 59 -82 41 -122 -14 -30
-40 -32 -84 -5 -61 37 -123 22 -314 -76 -139 -71 -230 -131 -243 -161 -24 -52
22 -139 128 -242 31 -30 133 -115 226 -189 206 -164 362 -298 376 -323 17 -32
-26 -44 -108 -30 -226 39 -479 167 -628 317 -134 136 -184 254 -192 455 -7
151 11 253 64 376 50 116 41 133 -30 61 -32 -32 -80 -92 -107 -134 -66 -101
-66 -133 -4 -343 95 -318 193 -541 285 -646 84 -96 94 -129 59 -201 -46 -94
-196 -204 -279 -204 -42 0 -67 15 -136 81 -62 60 -86 69 -153 58 -90 -14 -166
-63 -287 -184 -126 -126 -223 -253 -347 -457 -107 -176 -143 -228 -175 -252
-32 -23 -56 -12 -63 29 -3 16 -10 30 -17 32 -13 5 -111 -127 -162 -219 -48
-87 -13 -56 56 49 53 80 80 104 88 80 3 -6 9 -46 14 -88 10 -88 32 -141 68
-165 37 -23 94 -9 278 72 754 330 1078 409 1372 334 234 -60 364 -229 323
-423 -13 -67 -51 -117 -86 -117 -40 0 -82 49 -119 140 -42 102 -93 157 -177
188 -135 50 -379 54 -564 8 -255 -63 -480 -188 -819 -452 -208 -162 -335 -248
-441 -300 -150 -73 -227 -71 -280 9 l-27 41 -17 -22 c-65 -80 -45 -487 37
-746 33 -106 82 -156 183 -187 179 -54 407 12 695 201 235 155 376 285 433
402 17 35 49 128 72 207 50 178 86 254 151 325 60 65 131 103 222 117 124 20
293 -21 367 -87 71 -64 64 -91 -63 -277 -163 -236 -319 -535 -341 -650 -4 -21
-18 -59 -31 -85 -31 -63 -134 -348 -266 -742 -144 -427 -211 -649 -249 -828
-18 -81 -39 -166 -47 -189 -18 -51 -117 -193 -183 -262 -98 -102 -105 -51 -24
182 205 591 244 758 259 1087 11 245 71 793 110 994 8 44 13 81 11 84 -2 2
-36 -37 -76 -87 -146 -185 -218 -232 -780 -509 -412 -204 -460 -234 -505 -322
-13 -26 -31 -85 -40 -131 -9 -46 -24 -109 -32 -139 -16 -55 -59 -110 -87 -110
-27 0 -40 -75 -27 -153 18 -110 57 -169 120 -187 57 -16 67 -25 54 -52 -6 -13
-77 -95 -158 -183 -427 -463 -751 -1044 -979 -1755 -91 -287 -136 -446 -136
-485 0 -42 45 -82 101 -91 21 -4 43 -12 48 -18 5 -6 11 -126 14 -266 11 -549
99 -895 307 -1206 243 -363 623 -617 992 -664 223 -28 533 1 728 67 199 68
479 205 542 265 22 21 45 38 52 38 49 0 387 332 521 512 94 125 185 270 260
411 106 202 278 667 305 826 11 60 24 81 52 81 34 0 237 -90 283 -126 24 -18
58 -40 75 -49 118 -61 514 -60 730 1 30 9 251 94 490 189 239 95 626 248 860
340 848 333 1243 497 1326 553 51 33 182 183 241 274 58 90 113 206 113 240 0
17 5 28 14 28 28 0 71 69 171 275 183 375 211 446 226 585 13 116 35 221 53
246 12 16 14 16 30 -8 9 -14 39 -76 66 -138 70 -159 116 -233 230 -366 55 -64
105 -129 112 -145 8 -18 20 -29 33 -29 11 0 74 -30 140 -67 318 -177 555 -243
877 -243 331 0 610 70 931 232 248 125 475 290 704 511 196 189 421 456 470
555 14 30 32 56 39 59 7 3 26 26 42 51 65 104 161 270 187 322 28 55 168 373
231 525 77 186 165 581 186 840 19 240 17 622 -5 770 -55 370 -156 649 -328
905 -165 245 -325 393 -542 499 -81 39 -82 41 -115 108 -41 87 -100 164 -137
182 -17 7 -41 24 -55 36 -34 30 -57 41 -106 49 -58 10 -195 -9 -236 -33 -54
-32 -141 -59 -231 -71 -104 -14 -298 -64 -400 -102 -221 -84 -484 -251 -799
-505 -149 -120 -265 -198 -320 -215 -60 -18 -66 0 -20 58 61 77 325 328 470
448 72 60 132 113 132 118 0 15 -20 8 -42 -14 -72 -72 -398 -1 -723 156 -507
245 -979 631 -1080 883 -8 21 -18 65 -23 97 -4 37 -13 63 -23 69 -24 15 -173
-27 -273 -77 -67 -34 -85 -48 -102 -81 -25 -49 -75 -78 -177 -104 -103 -27
-302 -45 -422 -38 -143 7 -142 8 -98 -88 50 -109 56 -189 20 -245 -15 -21 -47
-53 -73 -71 -120 -82 -443 -172 -518 -143 -22 8 -20 57 4 135 36 120 54 319
30 334 -6 4 -40 -15 -76 -42 -232 -171 -357 -246 -464 -277 -53 -16 -55 -16
-72 4 -21 25 -14 53 35 135 19 33 34 62 31 64 -2 2 -25 -5 -51 -15 -60 -23
-211 -23 -393 0 -217 29 -333 68 -504 170 -200 119 -324 267 -357 424 -13 65
-7 178 13 219 19 40 70 65 143 71 l64 5 68 -50 c94 -69 122 -77 267 -70 67 2
128 8 137 11 9 4 19 20 22 35 7 34 115 198 136 206 20 8 31 -6 91 -110 57
-100 82 -131 99 -121 6 4 11 22 11 39 -1 39 -99 266 -122 280 -25 16 -79 -31
-145 -125 -86 -123 -170 -173 -310 -185 -80 -7 -100 -1 -159 45 -109 87 -140
89 -297 28 -184 -72 -446 -162 -543 -187 -86 -22 -93 -22 -116 -7 -18 12 -27
29 -31 58 -12 91 18 118 235 213 233 103 783 291 933 319 36 7 65 16 65 20 0
12 -64 8 -155 -8z m3036 -849 c10 -17 21 -53 24 -81 6 -44 4 -54 -16 -78 -34
-38 -86 -44 -144 -16 -47 23 -97 82 -88 106 11 30 156 106 192 101 8 -1 23
-16 32 -32z m-3700 -172 c435 -304 430 -301 511 -307 199 -15 544 -30 726 -30
l203 -1 -8 -120 c-10 -153 -6 -229 14 -283 18 -49 13 -61 -21 -43 -49 27 -146
182 -160 258 -8 45 -34 83 -57 83 -14 0 -19 7 -19 25 0 21 -5 25 -29 25 -43 0
-191 -40 -533 -145 -367 -113 -435 -131 -553 -145 -49 -6 -105 -19 -124 -28
-44 -23 -71 -74 -71 -134 0 -60 -12 -61 -75 -6 -73 65 -105 114 -105 162 0 52
12 70 123 183 l90 92 -75 203 c-102 272 -113 319 -86 346 18 18 65 -7 249
-135z m3483 19 c9 -15 -24 -51 -63 -71 -53 -27 -153 -57 -241 -73 -108 -18
-441 -18 -464 1 -30 25 1 31 159 31 147 0 152 1 285 42 249 76 312 90 324 70z
m46 -132 c39 -11 70 -52 70 -94 0 -33 -49 -88 -100 -111 -36 -16 -48 -17 -108
-6 -232 41 -192 159 73 215 11 2 22 4 25 5 3 0 21 -4 40 -9z m-535 -545 c136
-29 249 -100 360 -225 59 -67 166 -228 203 -307 26 -56 27 -64 27 -228 0 -192
-16 -268 -76 -358 -61 -92 -120 -108 -455 -127 -330 -18 -495 -30 -634 -46
-528 -59 -973 -182 -1355 -372 -275 -136 -380 -207 -851 -572 -443 -345 -601
-462 -671 -496 -95 -47 -89 -14 25 135 124 163 145 237 140 508 l-3 188 30 55
c67 122 822 853 1091 1055 582 439 1266 747 1784 804 108 12 294 5 385 -14z
m1115 -110 c43 -22 95 -92 195 -262 49 -81 122 -206 164 -276 42 -71 115 -177
162 -237 103 -129 148 -197 263 -395 48 -82 94 -156 101 -164 16 -16 37 -1
185 134 325 295 695 491 1045 551 128 23 379 14 490 -16 176 -48 384 -169 501
-292 134 -142 295 -424 349 -613 109 -380 105 -816 -10 -1275 -185 -737 -595
-1380 -1139 -1790 -338 -253 -725 -403 -1046 -404 -98 0 -134 5 -243 33 -288
73 -431 158 -595 353 -187 223 -292 445 -341 725 -102 574 10 1213 325 1847
61 124 179 316 193 316 18 0 84 -135 89 -179 4 -43 0 -52 -53 -131 -45 -67
-55 -91 -51 -112 4 -22 -5 -42 -41 -95 -58 -85 -108 -200 -178 -407 -110 -332
-125 -423 -125 -769 0 -312 9 -399 60 -585 53 -193 142 -433 155 -420 3 3 -13
70 -36 149 -22 79 -49 185 -60 234 -28 134 -43 407 -35 649 10 330 34 468 131
766 63 192 227 520 304 610 l31 35 19 -25 c11 -14 52 -78 91 -142 107 -176
120 -181 34 -13 -76 148 -118 205 -152 205 -23 0 -42 19 -42 42 0 38 -177 351
-271 479 -27 37 -49 71 -49 77 0 5 -27 51 -60 101 -71 108 -120 202 -120 231
0 31 -121 260 -274 519 -144 243 -206 370 -206 424 0 83 84 154 168 143 23 -3
56 -13 72 -21z m-4850 -140 c162 -81 183 -85 470 -85 135 1 317 5 405 10 304
18 572 24 578 12 27 -42 -58 -80 -205 -92 -62 -5 -140 -17 -172 -25 -76 -20
-174 -72 -199 -106 -17 -24 -18 -30 -6 -55 21 -43 62 -59 154 -57 190 2 426
97 645 260 47 34 117 78 155 98 114 56 235 79 235 44 0 -5 -46 -31 -102 -58
-121 -57 -203 -114 -352 -246 -121 -106 -221 -177 -287 -202 -35 -13 -93 -17
-279 -21 -530 -10 -719 50 -960 305 -118 124 -227 273 -200 273 6 0 60 -25
120 -55z m4763 -511 c13 -13 -25 -65 -124 -171 -56 -59 -113 -126 -127 -148
-13 -22 -55 -78 -92 -125 -37 -47 -104 -139 -150 -205 -127 -184 -142 -196
-191 -156 l-24 19 23 48 c26 53 224 335 322 459 103 129 172 189 295 257 54
30 58 31 68 22z m447 -804 c0 -36 -25 -82 -113 -213 -278 -412 -448 -841 -608
-1531 -48 -207 -64 -234 -95 -159 -26 61 -1 193 111 587 164 582 270 820 515
1151 40 54 90 118 113 142 43 46 77 57 77 23z m-1127 -51 c12 -7 46 -32 75
-57 l53 -45 -48 -49 c-55 -55 -120 -104 -129 -95 -4 3 -9 21 -13 39 -9 42 -35
44 -37 3 -3 -57 -107 -249 -527 -970 -154 -264 -333 -576 -399 -694 -135 -242
-158 -279 -175 -285 -19 -8 -43 22 -43 51 0 49 347 691 755 1398 185 321 272
459 310 495 30 28 31 36 6 43 -13 3 -18 11 -15 23 3 11 -6 34 -21 53 -29 40
-31 54 -11 70 31 26 181 40 219 20z m-2313 -374 c167 -35 320 -102 342 -150
28 -63 -47 -125 -151 -125 -42 0 -61 -4 -61 -12 1 -18 95 -135 119 -147 16 -9
37 5 136 94 129 116 221 169 316 184 107 18 157 -9 265 -140 63 -77 121 -119
164 -119 14 0 59 17 100 37 60 30 87 37 131 38 66 0 81 -10 115 -76 64 -127
82 -297 38 -356 -48 -65 -162 -110 -299 -120 -91 -6 -103 -1 -222 104 l-62 55
-63 -53 c-81 -67 -109 -78 -226 -88 -100 -9 -149 -24 -287 -85 -108 -47 -203
-66 -340 -66 -121 0 -215 15 -311 51 -116 43 -157 82 -210 194 -15 33 -51 85
-79 115 -70 74 -75 86 -75 182 1 258 118 433 331 493 65 18 217 14 329 -10z
m2139 -540 c90 -22 161 -62 178 -102 18 -44 17 -248 -2 -336 -28 -134 -85
-220 -170 -258 -52 -24 -70 -24 -95 1 -28 28 -25 81 10 178 57 157 35 145 -85
-43 -42 -66 -97 -141 -122 -166 -49 -51 -112 -85 -137 -76 -42 16 -9 105 142
383 99 181 132 268 132 342 0 33 3 67 6 76 8 20 58 21 143 1z m-3864 -57 c75
-66 105 -120 105 -189 0 -82 -26 -156 -164 -467 -331 -743 -555 -1307 -632
-1592 l-10 -35 -144 -2 -145 -3 45 41 c52 46 110 79 140 79 42 0 64 39 88 155
91 435 223 861 369 1184 40 88 66 158 67 182 1 32 5 39 21 39 38 0 126 109
185 228 62 125 68 220 21 337 -17 42 -31 78 -31 81 0 2 8 4 19 4 10 0 40 -19
66 -42z m816 -110 c9 -17 10 -89 6 -278 -9 -370 -25 -486 -83 -624 -37 -87
-82 -224 -90 -271 -4 -31 -19 -53 -65 -99 -47 -47 -62 -57 -72 -47 -9 9 -13
86 -16 281 l-3 269 -32 5 c-223 34 -269 51 -274 104 -5 46 36 80 175 148 113
56 143 81 143 119 0 11 -15 57 -34 103 l-33 82 76 68 c162 145 272 196 302
140z m150 -376 c-13 -107 -8 -125 55 -195 24 -27 43 -55 41 -61 -12 -36 -119
1 -160 55 -25 34 -33 107 -18 161 12 43 78 144 88 135 2 -3 0 -46 -6 -95z m99
-15 c6 -49 17 -81 46 -127 27 -44 34 -64 26 -72 -26 -26 -101 20 -133 85 -26
49 -23 139 5 182 16 24 20 26 33 12 8 -8 18 -44 23 -80z m486 23 c98 -16 227
-34 286 -39 80 -7 116 -15 142 -30 36 -23 62 -71 52 -96 -7 -19 -35 -7 -78 33
-23 21 -33 24 -68 18 -105 -17 -533 86 -548 132 -5 17 12 16 214 -18z m993
-24 c17 -21 -11 -37 -139 -81 -122 -43 -142 -52 -194 -94 -60 -48 -117 -35
-102 24 8 32 70 101 110 123 74 39 300 58 325 28z m-991 -125 c70 -11 170 -23
222 -26 123 -8 178 -27 195 -69 22 -51 -19 -94 -45 -47 -13 25 -51 37 -183 56
-130 19 -278 56 -338 83 l-44 20 33 1 c18 1 90 -8 160 -18z m939 -32 c37 -34
109 -148 149 -235 140 -308 180 -615 110 -849 -138 -459 -597 -947 -1216
-1293 -302 -168 -1306 -648 -1719 -821 -592 -249 -1106 -425 -1578 -542 l-163
-40 -43 19 c-24 11 -61 34 -82 53 l-40 34 41 -50 c22 -27 43 -58 47 -67 20
-55 -151 -277 -269 -348 -100 -60 -173 -79 -301 -80 -63 0 -113 -4 -113 -9 0
-37 233 -34 384 5 32 8 61 13 64 10 9 -10 -68 -73 -128 -105 -32 -18 -81 -47
-109 -65 -34 -23 -51 -30 -54 -21 -3 7 -35 14 -84 18 -48 3 -104 15 -146 31
-86 33 -114 33 -129 1 -8 -18 -8 -39 1 -81 14 -71 34 -104 64 -104 13 0 28 -5
35 -12 15 -15 16 -74 2 -83 -19 -12 -10 -49 29 -115 53 -88 116 -154 143 -147
16 5 19 2 15 -14 -9 -36 56 -95 157 -144 75 -35 186 -71 186 -60 0 16 -181 95
-217 95 -18 0 -23 5 -23 25 0 34 -81 120 -126 135 -34 11 -35 13 -32 58 3 45
2 47 -25 50 -15 2 -27 9 -27 18 0 25 59 52 134 59 171 17 436 134 738 326 138
88 458 266 510 285 75 26 143 11 155 -34 18 -71 -40 -227 -157 -423 -83 -137
-96 -166 -85 -177 21 -21 166 211 309 493 91 179 139 253 181 281 61 40 56
-19 -20 -211 -205 -526 -548 -931 -950 -1121 -174 -82 -286 -107 -490 -107
-157 0 -213 11 -328 69 -158 79 -280 187 -371 327 -70 107 -87 143 -129 263
-162 465 -111 1042 138 1561 77 162 149 281 225 377 94 119 281 316 372 394
66 56 91 84 107 123 29 66 38 143 21 174 -8 14 -11 41 -7 67 3 24 19 151 36
282 17 132 31 254 31 272 0 119 48 191 147 220 102 30 206 -11 183 -72 -5 -13
-14 -81 -19 -151 -13 -164 -34 -653 -28 -659 2 -2 42 5 88 16 211 50 172 -7
-63 -95 -26 -10 -53 -23 -59 -31 -16 -19 -35 -143 -63 -419 -14 -137 -29 -265
-32 -283 l-5 -33 -167 5 c-159 5 -164 5 -107 -8 129 -31 254 -94 317 -162 47
-51 97 -145 129 -243 17 -53 34 -99 37 -103 9 -9 355 67 537 117 504 139 781
240 1395 511 197 87 885 433 1096 551 681 382 1094 759 1299 1184 58 121 69
181 62 349 -9 216 -66 394 -193 597 -51 83 -51 99 2 139 76 58 172 68 221 23z
m-837 -99 c158 -14 218 -27 246 -56 40 -39 22 -64 -18 -27 -16 14 -36 17 -101
15 -110 -3 -273 18 -376 50 -86 27 42 36 249 18z m1705 -386 c37 -39 49 -111
41 -243 -23 -424 -211 -818 -555 -1162 -221 -220 -429 -369 -781 -559 -74 -40
-152 -86 -173 -102 -20 -16 -42 -26 -47 -23 -6 4 -41 -14 -78 -39 -120 -80
-588 -334 -922 -501 -612 -306 -914 -445 -1209 -557 -239 -90 -828 -288 -861
-288 -33 0 -54 -15 -48 -32 4 -10 -7 -14 -51 -14 -36 -1 -113 -18 -215 -48
-299 -89 -332 -90 -405 -11 -33 36 -41 52 -41 83 0 82 48 109 360 202 941 281
1511 483 2010 713 363 167 1251 623 1565 803 237 136 422 282 640 506 180 184
254 284 353 477 152 295 241 543 247 689 4 107 23 132 97 132 40 0 53 -5 73
-26z m-1886 -73 c283 -74 283 -74 229 -216 -33 -89 -64 -317 -39 -289 4 5 20
47 34 94 36 115 79 188 122 206 47 19 78 18 191 -11 158 -40 207 -86 205 -194
0 -31 -10 -86 -21 -123 -11 -38 -29 -98 -40 -135 -11 -38 -20 -78 -20 -90 0
-15 -7 -23 -22 -25 -15 -2 -33 -22 -56 -63 -72 -129 -267 -342 -353 -385 -63
-33 -131 -41 -228 -29 -83 10 -171 39 -171 56 0 5 13 13 29 19 15 6 64 53 107
104 113 133 118 142 34 72 -144 -121 -243 -174 -366 -194 -80 -14 -174 7 -246
53 -95 61 -184 189 -207 297 -14 66 -15 292 -1 292 5 0 28 26 51 58 47 65 76
93 174 166 117 87 164 161 184 283 23 146 45 149 410 54z m2732 -259 c98 -63
163 -177 199 -353 19 -88 21 -123 16 -230 -18 -362 -130 -827 -257 -1067 -26
-48 -39 -87 -39 -112 0 -23 -6 -43 -17 -51 -15 -13 -16 -11 -9 14 3 15 4 27 2
27 -2 0 -29 -35 -59 -78 -81 -115 -227 -234 -426 -347 -102 -58 -139 -69 -122
-37 5 9 77 86 160 170 174 178 241 271 342 477 164 336 208 535 188 840 -13
194 -32 287 -99 465 -33 88 -60 176 -60 194 0 32 26 76 60 103 25 21 74 14
121 -15z m-6194 -81 c91 -42 164 -210 95 -219 -18 -3 -38 11 -82 57 -32 34
-65 61 -73 61 -8 0 -56 -27 -105 -59 -144 -95 -182 -110 -182 -72 0 27 73 132
121 176 49 44 112 75 154 75 17 0 49 -9 72 -19z m6454 -61 c48 -50 135 -178
159 -234 10 -22 21 -68 24 -101 9 -76 -9 -242 -27 -264 -17 -20 -37 -89 -37
-128 0 -16 7 -38 15 -49 23 -31 17 -37 -14 -15 -16 12 -31 21 -34 21 -2 0 -7
-16 -10 -36 -6 -37 -52 -114 -68 -114 -19 0 -22 65 -16 319 8 306 -1 434 -38
538 -14 40 -25 79 -25 88 0 27 32 16 71 -25z m-6487 -131 c35 -28 34 -56 -4
-64 -54 -12 -103 28 -86 71 8 21 59 17 90 -7z m6056 -86 c0 -21 -5 -65 -10
-98 -6 -33 -11 -161 -10 -284 0 -184 -3 -229 -15 -248 -23 -34 -44 -28 -64 20
-26 59 -34 180 -21 327 13 147 28 214 64 275 33 56 56 59 56 8z m-3297 -539
c58 -52 120 -87 295 -165 34 -15 59 -33 68 -51 13 -25 12 -32 -11 -76 -14 -27
-33 -87 -41 -133 -19 -99 -39 -137 -91 -166 -81 -45 -149 -58 -308 -58 -212 0
-315 36 -351 120 -17 40 0 128 45 237 52 123 136 242 118 166 -38 -159 4 -288
93 -288 45 0 50 21 33 145 -8 61 -13 140 -11 176 3 56 8 71 37 107 18 23 39
42 48 42 8 0 43 -25 76 -56z m-1410 -130 c31 -22 52 -49 79 -104 38 -75 60
-170 41 -170 -6 0 -40 24 -75 53 -80 66 -124 87 -192 94 -153 16 -347 -103
-651 -399 -163 -158 -235 -241 -235 -271 0 -11 -9 -15 -32 -13 -31 1 -34 -2
-46 -44 -25 -84 -34 -101 -51 -98 -25 6 -17 61 18 131 17 34 69 107 117 162
47 55 97 124 111 154 18 41 60 91 166 199 222 225 291 273 461 318 127 34 229
30 289 -12z m-74 -188 c65 -38 135 -116 158 -175 31 -81 -9 -194 -90 -252 -70
-51 -133 -63 -312 -64 -222 0 -393 35 -429 87 -22 31 -4 58 116 173 182 176
373 283 473 267 17 -2 54 -18 84 -36z m690 -41 c110 -52 223 -120 272 -163
l42 -38 -17 -32 c-9 -18 -28 -38 -42 -44 -22 -10 -28 -8 -55 20 -17 17 -47 36
-67 42 -52 14 -178 12 -317 -5 -131 -16 -255 -20 -255 -7 0 33 193 221 263
256 42 22 83 15 176 -29z m155 -324 c24 -38 -328 -347 -584 -513 -104 -68
-271 -152 -432 -218 l-121 -50 -91 50 c-91 49 -135 84 -123 97 4 3 71 7 149 8
119 2 157 7 228 28 113 33 176 59 287 116 163 86 230 137 457 342 138 125 212
170 230 140z m-1166 -317 c47 -21 53 -26 46 -46 -18 -58 -121 -158 -217 -212
-190 -106 -439 -80 -493 51 -32 75 -7 144 105 295 l64 86 221 -75 c122 -42
245 -86 274 -99z m4157 124 c45 -23 105 -76 105 -94 0 -16 -81 -24 -253 -24
-164 0 -176 5 -138 59 59 83 184 109 286 59z m-567 -229 c102 -12 147 -26 282
-90 289 -137 471 -278 434 -336 -18 -29 -32 -26 -81 20 -163 152 -425 282
-698 348 -213 51 -283 27 -1050 -354 -702 -349 -1026 -495 -1013 -455 6 18
173 105 808 422 333 165 679 338 770 384 l165 82 150 -5 c83 -4 187 -11 233
-16z m-183 -215 c132 -34 417 -127 534 -175 134 -55 180 -104 141 -152 -16
-19 -27 -22 -92 -21 -92 2 -202 38 -290 94 -34 23 -95 57 -134 76 -202 97
-294 98 -492 8 -43 -20 -124 -55 -182 -79 -58 -23 -200 -87 -315 -140 -310
-143 -634 -286 -770 -338 -227 -88 -316 -96 -194 -17 109 70 1219 616 1439
707 173 73 205 76 355 37z"/>
<path d="M8442 9218 c-40 -40 20 -174 307 -682 55 -99 103 -182 106 -184 6 -7
115 98 115 110 0 5 -14 1 -31 -8 -46 -23 -70 -12 -109 51 -19 31 -59 93 -88
138 -58 90 -189 328 -226 412 -35 78 -40 111 -22 137 9 12 16 26 16 30 0 13
-55 9 -68 -4z"/>
<path d="M10760 8440 c-192 -24 -420 -121 -650 -275 -292 -195 -517 -415 -495
-485 17 -52 29 -46 175 94 79 75 147 136 152 136 6 0 33 21 62 47 165 149 542
328 780 369 186 33 530 -4 685 -73 103 -46 110 -47 66 -7 -145 129 -322 190
-575 199 -74 2 -164 0 -200 -5z"/>
<path d="M9479 7538 c-47 -25 -67 -43 -82 -71 -33 -64 -8 -65 62 -2 67 60 77
64 166 67 l60 3 -32 18 c-49 26 -102 22 -174 -15z"/>
<path d="M10390 7336 c-101 -30 -138 -47 -217 -99 -86 -56 -172 -129 -196
-168 -19 -28 -19 -32 -2 -74 9 -25 24 -54 33 -65 17 -20 19 -19 119 84 152
155 272 230 456 285 128 38 114 59 -38 59 -56 1 -103 -6 -155 -22z"/>
<path d="M10896 7318 c84 -74 114 -111 154 -193 50 -101 70 -212 70 -389 0
-197 -22 -322 -85 -481 -61 -156 -172 -314 -321 -455 -182 -172 -355 -251
-554 -253 -104 -1 -190 30 -309 110 l-96 65 55 -57 c189 -196 436 -234 690
-105 140 72 350 257 436 387 81 123 193 369 229 508 23 87 30 248 15 357 -29
214 -126 423 -227 490 -107 71 -126 76 -57 16z"/>
<path d="M9716 6878 c39 -76 143 -225 178 -255 50 -44 94 -45 130 -2 31 36 32
71 6 119 -18 33 -19 33 -20 10 0 -14 -5 -42 -11 -62 -20 -74 -70 -45 -205 117
-48 58 -89 105 -91 105 -2 0 4 -15 13 -32z"/>
<path d="M9640 6872 c0 -19 39 -92 50 -92 12 0 -6 49 -30 80 -11 14 -20 19
-20 12z"/>
<path d="M10205 6741 c-30 -13 -52 -42 -60 -81 -15 -73 -68 -128 -146 -150
-43 -12 -87 11 -178 95 -40 36 -78 64 -84 62 -16 -5 -53 -148 -73 -282 -26
-178 -4 -320 72 -465 40 -76 100 -160 114 -160 5 0 -1 29 -14 64 -39 103 -49
195 -43 398 5 188 22 283 52 294 26 10 89 -30 177 -113 97 -92 112 -97 184
-62 81 39 143 156 144 269 0 76 -15 105 -66 126 -37 16 -50 16 -79 5z m85
-191 c-12 -43 -27 -65 -65 -99 -52 -46 -74 -43 -31 4 13 14 34 47 46 73 12 26
27 53 33 60 16 19 27 -5 17 -38z"/>
<path d="M11260 5378 c-128 -118 -430 -433 -430 -449 0 -5 -7 -9 -15 -9 -21 0
-97 -39 -239 -122 -65 -39 -139 -79 -164 -90 -25 -12 -53 -28 -61 -38 -9 -9
-45 -22 -81 -29 -60 -12 -265 -84 -283 -101 -5 -4 16 -5 45 -3 113 9 220 32
285 62 38 16 88 35 113 42 67 17 95 34 118 74 17 27 28 35 51 35 17 0 48 14
77 35 27 20 68 48 92 63 86 54 126 88 132 112 4 17 16 26 39 32 21 6 61 37
110 86 125 124 350 396 339 408 -3 3 -60 -46 -128 -108z"/>
<path d="M9795 4520 c3 -5 26 -10 51 -10 24 0 44 5 44 10 0 6 -23 10 -51 10
-31 0 -48 -4 -44 -10z"/>
<path d="M1545 4090 c-4 -6 11 -10 37 -10 31 0 39 3 28 10 -20 13 -57 13 -65
0z"/>
<path d="M1304 3647 c-69 -51 -224 -195 -224 -208 0 -18 18 -7 130 81 145 113
180 144 180 159 0 21 -28 11 -86 -32z"/>
<path d="M983 3067 c-23 -18 -42 -35 -43 -39 -1 -18 23 -5 63 32 50 47 39 52
-20 7z"/>
<path d="M762 2949 c-22 -46 -59 -185 -86 -319 -29 -142 -39 -271 -33 -420 8
-206 41 -373 123 -615 59 -178 102 -261 123 -240 7 7 -10 70 -54 200 -75 219
-115 383 -115 473 0 58 11 80 24 47 9 -25 26 -17 26 14 0 41 9 61 26 54 19 -7
18 -5 -16 68 -34 74 -50 166 -50 294 0 142 19 324 41 398 24 83 19 109 -9 46z"/>
<path d="M1223 2790 c-70 -16 -97 -41 -121 -115 -13 -39 -25 -97 -25 -131 -2
-55 1 -66 29 -100 47 -60 106 -87 175 -80 72 7 153 37 157 58 4 23 -74 38
-200 38 l-101 0 6 45 c13 91 76 200 146 253 44 34 10 50 -66 32z"/>
<path d="M1581 2598 c-20 -142 -35 -181 -96 -247 -63 -68 -134 -116 -209 -143
l-51 -18 50 6 c117 13 240 105 297 221 27 55 32 77 36 163 6 124 -11 134 -27
18z"/>
<path d="M920 2025 c29 -30 56 -52 59 -50 6 7 -90 105 -103 105 -6 0 14 -25
44 -55z"/>
<path d="M777 2003 c-11 -10 -8 -61 3 -68 6 -4 10 10 10 34 0 42 -2 46 -13 34z"/>
<path d="M2272 1338 c-28 -29 -70 -78 -93 -108 -39 -51 -35 -48 45 30 84 82
113 117 103 126 -2 2 -27 -19 -55 -48z"/>
<path d="M930 1277 c0 -38 22 -73 38 -63 16 10 15 31 -3 66 -20 39 -35 38 -35
-3z"/>
<path d="M1000 1173 c0 -23 45 -76 75 -89 27 -11 35 -20 35 -39 0 -18 7 -26
25 -31 59 -15 38 25 -55 106 -71 60 -80 66 -80 53z"/>
<path d="M1595 1010 c-4 -6 7 -10 24 -10 17 0 31 5 31 10 0 6 -11 10 -24 10
-14 0 -28 -4 -31 -10z"/>
<path d="M5204 10980 c-40 -10 -94 -30 -122 -44 -48 -24 -102 -76 -102 -99 0
-24 99 -105 154 -126 73 -27 109 -26 174 4 60 28 184 141 202 185 17 40 9 72
-20 87 -38 19 -202 15 -286 -7z"/>
<path d="M5541 10477 c-14 -18 -4 -27 31 -27 30 0 35 9 16 28 -16 16 -33 15
-47 -1z"/>
<path d="M5495 10239 c-11 -17 1 -21 44 -14 57 9 61 25 7 25 -25 0 -48 -5 -51
-11z"/>
<path d="M8614 10226 c-8 -22 26 -74 57 -87 30 -12 49 -6 49 17 0 8 6 14 13
15 30 3 73 -4 110 -17 48 -17 83 -18 93 -3 9 15 -15 29 -51 29 -16 0 -75 14
-129 30 -112 34 -134 36 -142 16z"/>
<path d="M8975 10130 c-9 -15 3 -30 24 -30 25 0 33 11 20 27 -13 15 -35 17
-44 3z"/>
<path d="M6747 10114 c-10 -16 21 -87 52 -118 37 -37 40 -22 7 42 -32 61 -52
87 -59 76z"/>
<path d="M8716 10101 c-9 -14 27 -36 130 -77 115 -46 206 -93 222 -113 49 -61
118 -243 105 -276 -15 -42 -109 11 -164 92 -38 57 -69 93 -81 93 -13 0 -9 -56
9 -121 14 -52 23 -65 60 -90 126 -87 255 -92 292 -12 16 35 14 49 -13 66 -16
11 -22 23 -19 39 3 16 -11 45 -48 98 -71 100 -130 158 -215 208 -116 69 -263
118 -278 93z"/>
<path d="M6996 9901 c18 -67 46 -112 61 -97 11 10 -7 52 -37 86 -27 31 -30 32
-24 11z"/>
<path d="M9400 9851 c-21 -40 -12 -66 29 -84 43 -19 82 -70 106 -137 38 -107
183 -346 219 -360 12 -4 22 -6 24 -5 7 6 -209 424 -256 496 -45 69 -83 109
-104 109 -4 0 -12 -9 -18 -19z"/>
<path d="M6723 9780 c0 -30 2 -43 4 -27 2 15 2 39 0 55 -2 15 -4 2 -4 -28z"/>
<path d="M6877 9796 c-4 -10 -3 -25 1 -33 12 -21 22 5 12 31 -6 18 -7 18 -13
2z"/>
<path d="M7020 9698 c-22 -36 -26 -58 -10 -58 11 0 35 36 45 68 10 33 -12 27
-35 -10z"/>
<path d="M6686 9591 c-3 -4 -10 -21 -16 -37 l-11 -29 25 24 c26 24 34 51 17
51 -6 0 -12 -4 -15 -9z"/>
</g>
</svg>
